<svg width="20" height="22" viewBox="0 0 20 22" fill="none" xmlns="http://www.w3.org/2000/svg">
<path d="M1.33933 15.9998C0.916599 15.2688 0.587993 14.4873 0.361328 13.6738C0.854635 13.4229 1.26892 13.0404 1.55836 12.5687C1.84779 12.097 2.00109 11.5544 2.0013 11.0009C2.00151 10.4475 1.84861 9.90477 1.55953 9.43282C1.27045 8.96088 0.856448 8.57809 0.363328 8.32682C0.815364 6.69231 1.67606 5.19977 2.86433 3.98982C3.32842 4.29155 3.86695 4.45898 4.42031 4.4736C4.97367 4.48822 5.52028 4.34945 5.99966 4.07265C6.47904 3.79586 6.87248 3.39182 7.13646 2.90526C7.40043 2.41871 7.52463 1.8686 7.49533 1.31582C9.13744 0.891445 10.8606 0.892133 12.5023 1.31782C12.4733 1.87059 12.5977 2.42061 12.8619 2.90703C13.1261 3.39345 13.5197 3.7973 13.9992 4.07388C14.4786 4.35047 15.0253 4.48901 15.5786 4.47417C16.1319 4.45934 16.6704 4.2917 17.1343 3.98982C17.7133 4.57982 18.2273 5.25082 18.6593 5.99982C19.0923 6.74882 19.4163 7.52982 19.6373 8.32582C19.144 8.57672 18.7297 8.9592 18.4403 9.43093C18.1509 9.90266 17.9976 10.4453 17.9974 10.9987C17.9971 11.5522 18.15 12.0949 18.4391 12.5668C18.7282 13.0388 19.1422 13.4216 19.6353 13.6728C19.1833 15.3073 18.3226 16.7999 17.1343 18.0098C16.6702 17.7081 16.1317 17.5407 15.5784 17.526C15.025 17.5114 14.4784 17.6502 13.999 17.927C13.5196 18.2038 13.1262 18.6078 12.8622 19.0944C12.5982 19.5809 12.474 20.131 12.5033 20.6838C10.8612 21.1082 9.1381 21.1075 7.49633 20.6818C7.52537 20.1291 7.40093 19.579 7.13675 19.0926C6.87257 18.6062 6.47897 18.2023 5.9995 17.9258C5.52003 17.6492 4.97338 17.5106 4.42005 17.5255C3.86673 17.5403 3.32829 17.7079 2.86433 18.0098C2.27332 17.4068 1.76092 16.7314 1.33933 15.9998ZM6.99933 16.1958C8.06496 16.8105 8.86617 17.7968 9.24933 18.9658C9.74833 19.0128 10.2493 19.0138 10.7483 18.9668C11.1317 17.7977 11.9333 16.8113 12.9993 16.1968C14.0645 15.5805 15.3199 15.3793 16.5243 15.6318C16.8143 15.2238 17.0643 14.7888 17.2723 14.3338C16.4518 13.4173 15.9984 12.23 15.9993 10.9998C15.9993 9.73982 16.4693 8.56282 17.2723 7.66582C17.0629 7.21097 16.8118 6.77646 16.5223 6.36782C15.3186 6.62013 14.0641 6.4193 12.9993 5.80382C11.9337 5.18919 11.1325 4.20281 10.7493 3.03382C10.2503 2.98682 9.74933 2.98582 9.25033 3.03282C8.86693 4.20197 8.06533 5.18838 6.99933 5.80282C5.93411 6.41914 4.67881 6.62034 3.47433 6.36782C3.18489 6.77611 2.93446 7.21069 2.72633 7.66582C3.5469 8.58238 4.00021 9.76961 3.99933 10.9998C3.99933 12.2598 3.52933 13.4368 2.72633 14.3338C2.9358 14.7887 3.18687 15.2232 3.47633 15.6318C4.68005 15.3795 5.93454 15.5803 6.99933 16.1958ZM9.99933 13.9998C9.20368 13.9998 8.44062 13.6838 7.87801 13.1211C7.3154 12.5585 6.99933 11.7955 6.99933 10.9998C6.99933 10.2042 7.3154 9.44111 7.87801 8.8785C8.44062 8.31589 9.20368 7.99982 9.99933 7.99982C10.795 7.99982 11.558 8.31589 12.1206 8.8785C12.6833 9.44111 12.9993 10.2042 12.9993 10.9998C12.9993 11.7955 12.6833 12.5585 12.1206 13.1211C11.558 13.6838 10.795 13.9998 9.99933 13.9998ZM9.99933 11.9998C10.2645 11.9998 10.5189 11.8945 10.7064 11.7069C10.894 11.5194 10.9993 11.265 10.9993 10.9998C10.9993 10.7346 10.894 10.4803 10.7064 10.2927C10.5189 10.1052 10.2645 9.99982 9.99933 9.99982C9.73411 9.99982 9.47976 10.1052 9.29222 10.2927C9.10468 10.4803 8.99933 10.7346 8.99933 10.9998C8.99933 11.265 9.10468 11.5194 9.29222 11.7069C9.47976 11.8945 9.73411 11.9998 9.99933 11.9998Z" fill="white"/>
</svg>
