<svg width="60" height="60" viewBox="0 0 60 60" fill="none" xmlns="http://www.w3.org/2000/svg">
<path d="M30 27C33.9782 27 37.7936 28.5804 40.6066 31.3934C43.4196 34.2064 45 38.0218 45 42V60H15V42C15 38.0218 16.5804 34.2064 19.3934 31.3934C22.2064 28.5804 26.0218 27 30 27ZM9.864 36.018C9.38657 37.6284 9.10455 39.2903 9.024 40.968L9 42V60H2.73951e-07V46.5C-0.000590421 43.9127 0.954085 41.4163 2.6809 39.4896C4.40772 37.5629 6.78509 36.3416 9.357 36.06L9.867 36.018H9.864ZM50.136 36.018C52.8057 36.1807 55.3128 37.3559 57.1458 39.3037C58.9788 41.2515 59.9996 43.8253 60 46.5V60H51V42C51 39.921 50.7 37.914 50.136 36.018ZM10.5 18C12.4891 18 14.3968 18.7902 15.8033 20.1967C17.2098 21.6032 18 23.5109 18 25.5C18 27.4891 17.2098 29.3968 15.8033 30.8033C14.3968 32.2098 12.4891 33 10.5 33C8.51088 33 6.60322 32.2098 5.1967 30.8033C3.79018 29.3968 3 27.4891 3 25.5C3 23.5109 3.79018 21.6032 5.1967 20.1967C6.60322 18.7902 8.51088 18 10.5 18ZM49.5 18C51.4891 18 53.3968 18.7902 54.8033 20.1967C56.2098 21.6032 57 23.5109 57 25.5C57 27.4891 56.2098 29.3968 54.8033 30.8033C53.3968 32.2098 51.4891 33 49.5 33C47.5109 33 45.6032 32.2098 44.1967 30.8033C42.7902 29.3968 42 27.4891 42 25.5C42 23.5109 42.7902 21.6032 44.1967 20.1967C45.6032 18.7902 47.5109 18 49.5 18ZM30 0C33.1826 0 36.2348 1.26428 38.4853 3.51472C40.7357 5.76516 42 8.8174 42 12C42 15.1826 40.7357 18.2348 38.4853 20.4853C36.2348 22.7357 33.1826 24 30 24C26.8174 24 23.7652 22.7357 21.5147 20.4853C19.2643 18.2348 18 15.1826 18 12C18 8.8174 19.2643 5.76516 21.5147 3.51472C23.7652 1.26428 26.8174 0 30 0Z" fill="#0076F5"/>
</svg>
