<svg width="48" height="65" viewBox="0 0 48 65" fill="none" xmlns="http://www.w3.org/2000/svg">
<path d="M39 42.7349V63.3509C39.0001 63.6163 38.9297 63.877 38.7961 64.1063C38.6625 64.3356 38.4705 64.5254 38.2396 64.6562C38.0087 64.7871 37.7472 64.8543 37.4818 64.8511C37.2164 64.8479 36.9567 64.7743 36.729 64.6379L24 56.9999L11.271 64.6379C11.0431 64.7745 10.7831 64.8481 10.5174 64.8511C10.2518 64.8542 9.99012 64.7867 9.75913 64.6555C9.52814 64.5243 9.33614 64.3341 9.20276 64.1044C9.06938 63.8746 8.99941 63.6136 9 63.3479V42.7379C5.11844 39.6302 2.29798 35.3936 0.928377 30.6135C-0.441223 25.8335 -0.292332 20.7461 1.35447 16.0543C3.00128 11.3626 6.06469 7.29817 10.1213 4.42276C14.178 1.54735 19.0276 0.00292969 24 0.00292969C28.9724 0.00292969 33.822 1.54735 37.8786 4.42276C41.9353 7.29817 44.9987 11.3626 46.6455 16.0543C48.2923 20.7461 48.4412 25.8335 47.0716 30.6135C45.702 35.3936 42.8816 39.6302 39 42.7379V42.7349ZM24 41.9999C28.7739 41.9999 33.3523 40.1035 36.7279 36.7278C40.1036 33.3522 42 28.7738 42 23.9999C42 19.226 40.1036 14.6477 36.7279 11.272C33.3523 7.89635 28.7739 5.99992 24 5.99992C19.2261 5.99992 14.6477 7.89635 11.2721 11.272C7.89642 14.6477 6 19.226 6 23.9999C6 28.7738 7.89642 33.3522 11.2721 36.7278C14.6477 40.1035 19.2261 41.9999 24 41.9999ZM24 35.9999C20.8174 35.9999 17.7652 34.7356 15.5147 32.4852C13.2643 30.2348 12 27.1825 12 23.9999C12 20.8173 13.2643 17.7651 15.5147 15.5146C17.7652 13.2642 20.8174 11.9999 24 11.9999C27.1826 11.9999 30.2348 13.2642 32.4853 15.5146C34.7357 17.7651 36 20.8173 36 23.9999C36 27.1825 34.7357 30.2348 32.4853 32.4852C30.2348 34.7356 27.1826 35.9999 24 35.9999Z" fill="#0076F5"/>
</svg>
